# xmcd
#
# Track frame offsets:
#	150
#	16580
#	32922
#	51490
#	70191
#	86878
#	103206
#	117820
#	135030
#	150743
#	166889
#	187100
#
# Disc length: 2902 seconds
#
# Revision: 2
# Processed by: cddbd v1.5PL3 Copyright (c) Steve Scherf et al.
# Submitted via: EasyCDDAExtractor 5.1.0
#
DISCID=9a0b540c
DTITLE=Sherrie Austin - Streets Of Heaven
DYEAR=2003
DGENRE=Country
TTITLE0=Singing To The Scarecrow
TTITLE1=Small Town Boy
TTITLE2=Ride'Em Cowgirl
TTITLE3=Driving Into The Sun
TTITLE4=Fools Like Us
TTITLE5=Somebody's Somebody
TTITLE6=Love Unafraid
TTITLE7=This Town Is That Small
TTITLE8=Remind Me
TTITLE9=I'm Still Falling
TTITLE10=Streets Of Heaven
TTITLE11=Like A Cat
EXTD=
EXTT0=
EXTT1=
EXTT2=
EXTT3=
EXTT4=
EXTT5=
EXTT6=
EXTT7=
EXTT8=
EXTT9=
EXTT10=
EXTT11=
PLAYORDER=
